<svg xmlns="http://www.w3.org/2000/svg" viewBox="0 0 77.13 77.13"><defs><style>.cls-1{fill:#7e4c50;}</style></defs><title> 29-auction (2)</title><g id="Layer_2" data-name="Layer 2"><g id="Layer_1-2" data-name="Layer 1"><g id="_29-auction" data-name=" 29-auction"><g id="Glyph"><path class="cls-1" d="M0,70.65H45.38v6.48H0Z"/><path class="cls-1" d="M38.89,64.11a3.24,3.24,0,0,0-3.24-3.24H9.72a3.24,3.24,0,0,0-3.24,3.24v7H38.89Z"/><path class="cls-1" d="M41.05,34.56a23.27,23.27,0,0,0-3.62,5.55L67,69.7a3.25,3.25,0,0,0,4.58,0l4.58-4.59a3.23,3.23,0,0,0,0-4.58h0L46.3,30.65a21.76,21.76,0,0,0-5.25,3.91Z"/><path class="cls-1" d="M28.17,22.09a34.27,34.27,0,0,1-9.39,5.75L35.53,44.59a37.08,37.08,0,0,1,5.79-9.73A34.57,34.57,0,0,1,50.63,29L33.88,12.21C32.59,15.3,30.44,19.63,28.17,22.09Z"/><rect class="cls-1" x="42.2" y="-1.51" width="12.96" height="32.41" rx="3.24" transform="translate(3.86 38.72) rotate(-45)"/><rect class="cls-1" x="14.69" y="25.99" width="12.96" height="32.41" rx="3.24" transform="translate(-23.63 27.33) rotate(-45)"/></g></g></g></g></svg>