<svg xmlns="http://www.w3.org/2000/svg" viewBox="0 0 79.67 76.88"><defs><style>.cls-1{fill:#4e8075;}</style></defs><title>Asset 15</title><g id="Layer_2" data-name="Layer 2"><g id="Layer_1-2" data-name="Layer 1"><path class="cls-1" d="M79.67,32.89a10.23,10.23,0,0,1-3.24,6.73c-2.85,2.8-5.68,5.62-8.59,8.36a4.35,4.35,0,0,0-1.43,4.34c.76,4.08,1.49,8.16,2.06,12.26a10.14,10.14,0,0,1-4.36,10.18,10.25,10.25,0,0,1-11,.92C49.43,73.91,45.86,72,42.32,70a4.62,4.62,0,0,0-4.86,0c-3.37,1.85-6.79,3.59-10.2,5.37-3.92,2-7.81,2-11.46-.53a10.26,10.26,0,0,1-4.51-10.69c.62-3.94,1.28-7.88,2-11.8a4.49,4.49,0,0,0-1.48-4.48C9,45.25,6.21,42.51,3.45,39.76A10.36,10.36,0,0,1,.67,28.36C2.15,24,5.39,21.71,9.89,21.09c3.8-.53,7.6-1.12,11.4-1.63a4.28,4.28,0,0,0,3.57-2.65c1.64-3.48,3.37-6.91,5.07-10.35C32,2.31,35.29,0,39.91,0s7.85,2.32,9.87,6.41c1.7,3.44,3.43,6.87,5.06,10.34a4.39,4.39,0,0,0,3.7,2.71c3.91.5,7.8,1.11,11.71,1.66C75.71,21.9,79.67,26.41,79.67,32.89Z"/></g></g></svg>