<svg xmlns="http://www.w3.org/2000/svg" viewBox="0 0 76.85 76.88"><defs><style>.cls-1{fill:#4e8075;}</style></defs><title>Asset 13</title><g id="Layer_2" data-name="Layer 2"><g id="Layer_1-2" data-name="Layer 1"><path class="cls-1" d="M76.85,16.45c0-2.91-.72-3.64-3.61-3.64H17.9c0-1.28,0-2.39,0-3.5A9.76,9.76,0,0,0,8.51,0C6.61,0,4.71,0,2.8,0,1.05.05,0,1,0,2.53S1,5.05,2.75,5.09c1.46,0,2.92,0,4.39,0,3.86,0,5.63,1.77,5.64,5.64,0,10.2,0,20.41,0,30.61,0,8.82,6.24,15,15.06,15,11.37,0,22.75,0,34.12,0A14.45,14.45,0,0,0,76.85,41.49Q76.84,29,76.85,16.45ZM51.09,37.14l-2.55,0c.19,0,.07,0-.86,0v0h0c0,1.13,0,2.26,0,3.39,0,1.77-1,2.94-2.54,3a2.61,2.61,0,0,1-2.61-2.88c0-1.17,0-2.34,0-3.51-1.14,0-2.28,0-3.41,0-1.77,0-2.94-1-3-2.53A2.62,2.62,0,0,1,39,32c1.16,0,2.32,0,3.48,0,0-1.16,0-2.31,0-3.46a2.7,2.7,0,0,1,2.62-2.92,2.73,2.73,0,0,1,2.54,3c0,1.18,0,2,0,2.55,0-.2,0-.09,0,.83h3.47a2.7,2.7,0,0,1,2.92,2.61C54.06,36.06,52.84,37.12,51.09,37.14Z"/><path class="cls-1" d="M61.05,76.87a8.11,8.11,0,1,1,8.12-8.05A8.13,8.13,0,0,1,61.05,76.87Z"/><path class="cls-1" d="M20.5,68.8a8.11,8.11,0,1,1,8.07,8.08A8.06,8.06,0,0,1,20.5,68.8Z"/></g></g></svg>