<svg xmlns="http://www.w3.org/2000/svg" viewBox="0 0 73.37 79.41"><defs><style>.cls-1{fill:#7e4c50;}</style></defs><title>Asset 11</title><g id="Layer_2" data-name="Layer 2"><g id="Layer_1-2" data-name="Layer 1"><path class="cls-1" d="M36.54,79.4H16.13c-9.52,0-16-6.45-16.1-16,0-8.91,0-17.83,0-26.75A14.82,14.82,0,0,1,4.47,25.87c7.08-7.1,14.14-14.22,21.28-21.26a15.27,15.27,0,0,1,21.86,0c7.15,7,14.21,14.15,21.27,21.26a14.88,14.88,0,0,1,4.46,10.89c0,8.92,0,17.84,0,26.76,0,9.32-6.63,15.85-15.95,15.89-3.47,0-6.95,0-10.43,0S40,79.4,36.54,79.4ZM55.17,37.09c0-1.16,0-2.32,0-3.48a4.41,4.41,0,0,0-4.41-4.44q-3.48-.09-6.95,0a4.39,4.39,0,0,0-4.43,4.42q-.08,3.46,0,6.95A4.37,4.37,0,0,0,43.63,45c2.41.09,4.84.09,7.25,0a4.36,4.36,0,0,0,4.28-4.41C55.2,39.41,55.17,38.25,55.17,37.09ZM34,58.25c0-1.15,0-2.31,0-3.47a4.43,4.43,0,0,0-4.41-4.45q-3.48-.07-6.95,0a4.41,4.41,0,0,0-4.43,4.43c-.05,2.32-.05,4.63,0,7a4.35,4.35,0,0,0,4.25,4.43q3.63.15,7.26,0A4.36,4.36,0,0,0,34,61.73C34,60.57,34,59.41,34,58.25Zm5.37,0c0,1.16,0,2.32,0,3.48a4.4,4.4,0,0,0,4.24,4.45c2.47.1,4.94.11,7.4,0a4.32,4.32,0,0,0,4.15-4.37c.05-2.37.06-4.74,0-7.1a4.35,4.35,0,0,0-4.22-4.31c-2.41-.09-4.84-.08-7.25,0a4.43,4.43,0,0,0-4.3,4.4C39.34,55.9,39.37,57.06,39.37,58.21ZM34,37.15c0-1.15,0-2.31,0-3.47a4.45,4.45,0,0,0-4.5-4.52c-2.26-.05-4.53-.05-6.79,0a4.42,4.42,0,0,0-4.5,4.51c-.05,2.26,0,4.53,0,6.79A4.37,4.37,0,0,0,22.54,45c2.36.09,4.74.09,7.1,0A4.41,4.41,0,0,0,34,40.48C34,39.37,34,38.26,34,37.15Z"/></g></g></svg>