 <svg xmlns="http://www.w3.org/2000/svg" viewBox="0 0 82.08 78.13"><defs><style>.cls-1{fill:#7e4c50;}</style></defs><title>Asset 9</title><g id="Layer_2" data-name="Layer 2"><g id="Layer_1-2" data-name="Layer 1"><path class="cls-1" d="M7.46,28.1c2,.62,2.91-.6,3.78-2.61a42.22,42.22,0,0,1,3.9-6.55,2,2,0,0,0,.18-2.55c-.57-.88-1.08-1.79-1.57-2.71a5.31,5.31,0,0,1,1.91-7.35q4.82-2.89,9.75-5.6a5.31,5.31,0,0,1,7.32,2c.32.53.61,1.09.92,1.63,1.35,2.37,1.35,2.23,4,2.1a77.9,77.9,0,0,1,7.94.1,2,2,0,0,0,2.27-1.17,27.47,27.47,0,0,1,1.63-2.84A5.25,5.25,0,0,1,56.59.69q5,2.73,9.89,5.69C69.06,8,70,11.13,68.29,13.56c-2.09,2.91-2.1,5.2.34,7.89,1.28,1.41,2,3.41,2.75,5.22a2,2,0,0,0,2.25,1.46,29.51,29.51,0,0,1,3.12,0A5.25,5.25,0,0,1,82,33.39c.07,3.75.06,7.5,0,11.25,0,3-2.35,5.6-5.36,5.29-3.59-.37-5.51.84-6.63,4.26-.61,1.86-2.18,3.39-3.16,5.17a3.09,3.09,0,0,0-.16,2.22,20.6,20.6,0,0,0,1.58,2.86,5.31,5.31,0,0,1-1.91,7.35q-4.81,2.91-9.75,5.62a5.31,5.31,0,0,1-7.32-2,10.64,10.64,0,0,1-1-1.77c-.69-1.81-1.87-2.19-3.78-2a52.5,52.5,0,0,1-7.93-.06,2.18,2.18,0,0,0-2.5,1.31,20.07,20.07,0,0,1-1.55,2.7,5.25,5.25,0,0,1-7.12,1.89q-5-2.75-9.87-5.7C13,70.18,12,67,13.77,64.57c2.08-2.91,2.13-5.19-.32-7.9-1.32-1.45-2-3.52-2.82-5.36a1.89,1.89,0,0,0-2-1.32c-1,.07-2,0-3,0A5.34,5.34,0,0,1,0,44.42C0,41,0,37.65,0,34.27,0,30.2,2.1,28.11,6.16,28.1Zm50,11A16.39,16.39,0,1,0,41.29,55.44,16.32,16.32,0,0,0,57.42,39.12Z"/></g></g></svg>